<?xml version="1.0" encoding="UTF-8" standalone="no"?>
<svg
   xmlns="http://www.w3.org/2000/svg"
   width="40"
   height="40"
   id="svg5257"
   version="1.1">
  <g
     id="layer1"
     transform="translate(-140.1387,-327.58063)">
    <path
       id="path10607-8-3-6"
       d="m 160.13658,332.24125 c -8.4719,0 -15.3394,6.8674 -15.3394,15.33938 0,8.47198 6.8675,15.33938 15.3394,15.33938 8.472,0 15.3436,-6.8674 15.3436,-15.33938 0,-8.47198 -6.8716,-15.33938 -15.3436,-15.33938 z m 0.6729,1.52854 c 6.9347,0.33075 12.5304,5.76841 13.1089,12.63536 h -5.0301 c -0.5457,-4.10162 -3.908,-7.30858 -8.0788,-7.62192 z m -1.7445,0.0249 v 4.53993 c -0.1957,-0.0829 -0.4047,-0.13914 -0.6272,-0.162 -0.1102,-0.0152 -0.2211,-0.0209 -0.3323,-0.0208 -1.0944,-0.037 -2.0419,0.78186 -2.3966,1.79437 0,10e-4 0,0.003 0,0.004 -2.3059,1.34144 -3.948,3.6946 -4.3157,6.45475 h -5.0342 c 0.5675,-6.73229 5.9598,-12.09122 12.706,-12.61044 z m 1.7445,6.46721 c 3.3558,0.30246 6.0609,2.85746 6.5877,6.14323 h -4.1993 c 0,-0.53235 -0.01,-1.06299 -0.021,-1.595 -0.1427,-0.80258 -1.0308,-1.10335 -1.7321,-0.93456 h -0.6355 v -3.61367 z m -5.138,1.48285 c 0.2379,0.80234 1.4675,1.17021 1.2917,2.08097 -0.8401,0.15134 -1.7363,-0.0265 -2.596,0.0623 -0.3095,-0.0146 -0.5555,0.10187 -0.7435,0.2866 0.499,-0.95198 1.2004,-1.78124 2.0478,-2.42988 z m -2.4798,3.43091 c -0.015,0.16735 -0.01,0.33465 0.017,0.49013 v 0.73934 h -0.3282 c 0.068,-0.42351 0.1744,-0.83357 0.3115,-1.22947 z m 6.3676,0.62719 c 0.278,0 0.5228,0.14491 0.6812,0.36968 0.1616,-0.204 0.3983,-0.33229 0.6604,-0.33229 0.4874,0 0.8847,0.4446 0.8847,0.99272 0,0.38986 -0.2035,0.72657 -0.4943,0.88888 l -1.1048,1.12978 -1.0758,-1.27932 c -0.2488,-0.16777 -0.4154,-0.4689 -0.4154,-0.81411 0,-0.52743 0.386,-0.95534 0.864,-0.95534 z m -13.2377,2.41742 h 5.0135 c 0.1304,1.81409 0.8112,3.476 1.8733,4.82237 v 1.14641 c 0.6435,-0.2064 0.8189,0.21324 0.7227,0.76427 v 4.98851 c -4.341,-2.18544 -7.3753,-6.58946 -7.6095,-11.72156 z m 6.4963,0 h 0.3905 v 1.81099 c -0.2026,-0.57376 -0.3362,-1.18191 -0.3905,-1.81099 z m 10.3841,0 h 4.2575 c -0.2573,2.98519 -2.2936,5.4611 -5.0467,6.35507 v -0.38629 c 1.1719,0.36777 0.7016,-1.02151 0.7851,-1.71545 -0.01,-1.41771 0,-2.83513 0,-4.25333 z m 5.7403,0 h 5.0135 c -0.2998,6.57487 -5.1916,11.95445 -11.543,13.00504 v -5.11313 c 3.5744,-0.95019 6.2564,-4.08765 6.5295,-7.89191 z m -11.6592,5.96878 h 1.7819 v 0.66458 c -0.6224,-0.0912 -1.2205,-0.26149 -1.7819,-0.49844 z m 0,1.74868 c 0.5699,0.19502 1.1662,0.33215 1.7819,0.40706 v 5.0259 c -0.606,-0.0467 -1.2003,-0.13523 -1.7819,-0.25753 z"
       style="fill:#000000;fill-opacity:1;fill-rule:nonzero;stroke:none" />
  </g>
</svg>
