<?xml version="1.0" encoding="UTF-8" standalone="no"?>
<svg
   xmlns="http://www.w3.org/2000/svg"
   width="40"
   height="40"
   version="1.1">
  <g
     id="layer1"
     transform="translate(-158.39834,-330.03528)">
    <path
       id="path10314-5-90-5"
       d="m 178.32062,333.87231 c -2.9759,0.19526 -6.1325,0.65032 -8.6054,2.43142 -3.1519,2.34446 -4.2676,6.80151 -2.8284,10.39914 0.3118,1.43714 1.6639,2.4594 1.7586,3.91971 0.046,1.29993 -0.1619,2.81612 0.6439,3.89024 1.1984,0.80847 2.3347,1.96548 2.0766,3.54046 -0.01,1.95426 -0.1435,4.12756 1.1251,5.7703 1.1074,1.38737 2.7973,2.27621 4.5947,2.31801 2.2979,0.1772 4.9079,0.0326 6.5974,-1.74391 1.5723,-1.22406 1.5041,-3.43891 1.5919,-5.2378 0,-1.57837 0.4877,-3.26061 1.8265,-4.23492 1.1938,-1.27218 1.377,-3.20541 1.0046,-4.84278 0.4404,-1.24523 1.5738,-2.21028 1.9032,-3.54918 1.3438,-3.57914 -0.01,-7.80894 -2.9735,-10.17283 -1.931,-1.5719 -4.4973,-2.00905 -6.8963,-2.38511 -0.6034,-0.0701 -1.2116,-0.10861 -1.8189,-0.10275 z m 0.033,0.97092 c 2.5362,0.0312 5.1378,0.51092 7.3959,1.68892 3.2621,2.03853 4.7744,6.49164 3.2727,10.0492 -0.064,0.68463 -1.3141,2.48005 -1.2388,0.76896 -0.01,-1.86453 1.2353,-3.77407 0.3281,-5.59444 -1.2866,-0.16388 -0.1748,2.20287 -0.811,2.99154 -0.6205,1.64363 -0.5179,3.40754 -0.177,5.09676 0.1923,1.45703 0.657,3.45766 -0.8607,4.3945 -1.4124,0.74564 -3.4047,1.11088 -3.9467,2.83238 0,1.56955 -1.9574,1.24649 -3.0282,1.37631 -1.4604,-0.0163 -2.9926,0.11328 -4.3932,-0.34808 -0.3534,-1.47827 -1.4394,-2.7976 -2.9624,-3.2375 -1.33,-0.26878 -2.5243,-1.31602 -2.4256,-2.75542 -0.065,-2.25212 0.9971,-4.52574 0.1705,-6.73927 -0.8148,-1.00892 0.3805,-3.14983 -0.8487,-3.59711 -0.9149,1.37157 -0.1447,3.11991 0.1368,4.59322 0.2465,0.6861 0.1789,3.1703 -0.6495,1.45954 -1.1865,-2.49074 -1.6736,-5.53747 -0.3017,-8.06284 1.1598,-2.46061 3.6893,-3.92755 6.2914,-4.44502 1.326,-0.30617 2.687,-0.46204 4.0481,-0.47165 z m -2.9264,12.12039 c -1.3666,0.16777 -2.8579,0.16984 -4.0882,0.82458 -1.1007,0.99722 -0.3031,2.62301 0.3397,3.65596 0.8019,1.41123 2.923,1.29462 3.6495,-0.11839 0.775,-1.00215 1.9428,-2.36559 1.1222,-3.67132 -0.2343,-0.33461 -0.5763,-0.70068 -1.0232,-0.69083 z m 5.5703,0.0184 c -1.0669,0.47581 -1.1435,1.8835 -0.5759,2.78113 0.667,1.05996 1.3373,2.50235 2.7039,2.7434 1.6604,-1e-5 2.5596,-1.80475 2.8591,-3.2017 0.3122,-1.55473 -1.543,-2.11151 -2.7576,-2.14611 -0.7394,-0.11565 -1.485,-0.13956 -2.2295,-0.17672 z m -3.0468,4.62913 c -1.4494,0.91386 -1.9147,2.82255 -1.5142,4.41285 0.2991,0.91524 1.5688,0.0387 1.6345,-0.54999 -0.027,-1.28606 0.078,-2.59235 -0.1203,-3.86286 z m 0.8289,0 c -0.2112,1.31679 -0.08,2.66676 -0.1158,3.99871 0.4545,0.71202 1.8134,1.34964 1.7635,-0.0362 0.1434,-1.50041 -0.3241,-3.11597 -1.6477,-3.96248 z m 6.075,4.45427 c -0.2343,1.37722 -0.5632,2.84185 -0.4694,4.29321 0.2056,2.4909 -2.0598,4.72971 -4.5111,4.82236 -2.2763,0.24321 -5.0706,0.22157 -6.5437,-1.82722 -1.1039,-1.29192 -0.9875,-3.01636 -1.0172,-4.59464 0.047,-0.89752 -0.3357,-1.89363 -0.3996,-2.66392 0.8385,1.35082 1.0222,2.97667 1.3781,4.49065 1.2225,1.82031 3.7006,1.96361 5.7008,1.88947 1.5802,-0.0585 3.5053,-0.34092 4.3688,-1.82923 0.5156,-1.50464 0.4972,-3.27177 1.4747,-4.57608 l 0.019,-0.005 1e-4,-1e-5 v 0 z m -11.9695,0.40033 c 1.0775,0.70939 1.2479,2.3035 1.1611,3.51928 -0.3594,1.19348 -0.6522,-1.29077 -0.8282,-1.74046 -0.044,-0.56098 -0.5182,-1.31311 -0.3329,-1.77882 z m 10.8072,0.16105 c -0.016,1.1719 -0.3965,2.67004 -0.8703,3.81316 -0.322,-1.17828 -0.01,-2.6288 0.662,-3.66594 l 0.2083,-0.14725 z m -8.9689,1.90503 c 0.9084,0.33064 -0.1497,1.96053 -0.32,0.51433 -0.04,-0.2042 0.055,-0.52291 0.32,-0.51433 z m 7.2696,0.0276 c 0.9761,0.22628 -0.3297,1.95795 -0.337,0.553 0.01,-0.20854 0.076,-0.52137 0.337,-0.553 z m -6.288,0.17025 c 1.0203,0.0526 0.031,2.38659 -0.2791,0.80314 0,-0.24396 -0.1227,-0.81331 0.2791,-0.80314 z m 5.2554,0.023 c 1.0707,0.29805 -0.4563,2.39679 -0.3598,0.67567 0.025,-0.23998 0,-0.69716 0.3598,-0.67567 z m -4.1487,0.0736 c 0.9975,0.43698 -0.2881,2.44433 -0.3523,0.72152 0.021,-0.24763 0.047,-0.66446 0.3523,-0.72152 z m 3.0745,0.0184 c 1.051,0.31663 -0.3174,2.366 -0.1852,0.6074 0.052,-0.1532 -0.088,-0.57713 0.1852,-0.6074 z m -0.9307,0.0184 c 0.8896,0.46795 -0.1678,2.35324 -0.4398,0.76845 -0.022,-0.31439 0.082,-0.69017 0.4398,-0.76845 z m -1.1066,0.0368 c 0.9547,0.2838 -0.11,2.4643 -0.3502,0.88029 0.051,-0.26771 -0.081,-0.88068 0.3502,-0.88029 z m 4.2321,1.25161 c 0.9707,0.37848 -0.6493,1.98507 -0.4075,0.41415 0.041,-0.1973 0.1778,-0.41454 0.4075,-0.41415 z m -7.3715,0.023 c 1.0232,0.36167 -0.2827,1.90481 -0.338,0.43718 0,-0.18854 0.1185,-0.43571 0.338,-0.43718 z m 0.9538,0.3037 c 1.0484,0.12481 0.036,2.14755 -0.2539,0.78305 0.034,-0.22554 -0.066,-0.71349 0.2539,-0.78305 z m 5.3759,0.005 c 1.0257,0.56146 -0.7688,2.11313 -0.4138,0.48561 0.048,-0.21195 0.165,-0.45534 0.4138,-0.48561 z m -1.1391,0.16565 c 1.0306,0.33436 -0.2925,2.25697 -0.199,0.68103 0.052,-0.17754 -0.073,-0.6346 0.199,-0.68103 z m -1.0604,0.0829 c 0.984,0.35438 0.016,2.25496 -0.3018,0.73318 0.015,-0.24974 0.016,-0.6282 0.3018,-0.73318 z m -2.0558,0.0322 c 1.1484,0.40747 -0.4917,1.89755 -0.3391,0.50197 0.03,-0.1734 0.09,-0.50522 0.3391,-0.50197 z m 1.065,0.0506 c 0.9461,0.28245 -0.2863,2.12353 -0.3624,0.62034 0.011,-0.23334 0.025,-0.64271 0.3624,-0.62034 z"
       style="fill:#000000;fill-opacity:1" />
  </g>
</svg>
