<?xml version="1.0" encoding="UTF-8" standalone="no"?>
<svg
   xmlns="http://www.w3.org/2000/svg"
   width="40"
   height="40"
   id="svg5257"
   version="1.1">
  <g
     id="layer1"
     transform="translate(-152.69917,-331.09159)">
    <path
       id="path9618-1-5-5-6"
       d="m 181.23725,338.934 c -0.011,-4.5e-4 -0.02,10e-4 -0.025,0.005 -0.1546,0.10424 0.1998,1.677 0.5475,2.43072 0.3961,0.85863 0.9998,1.37868 1.8294,1.57537 0.2009,0.0476 0.3837,0.0892 0.4067,0.0926 0.2713,0.0395 0.2491,-1.17428 -0.033,-1.81987 -0.2373,-0.54262 -0.6745,-1.06387 -1.2312,-1.46777 -0.4973,-0.36088 -1.3231,-0.80816 -1.4938,-0.81578 z m -17.0783,7.5e-4 c -0.1712,0.007 -0.9955,0.45218 -1.4955,0.81499 -0.5505,0.39945 -0.9903,0.92072 -1.232,1.45985 -0.2122,0.47342 -0.3074,1.52723 -0.1558,1.7265 0.097,0.12718 0.3573,0.0949 0.9099,-0.11235 0.6388,-0.23958 1.1067,-0.71384 1.4638,-1.48359 0.3023,-0.65172 0.6707,-2.30846 0.5341,-2.40065 -0.01,-0.004 -0.013,-0.005 -0.024,-0.005 z m -4.2229,0.93447 c 0,4e-5 0,3e-4 0,7.5e-4 -0.1214,0.0422 -0.5585,1.01428 -0.7422,1.65133 -0.3843,1.33221 -0.2253,2.56326 0.4272,3.31612 0.1124,0.12958 0.2296,0.23579 0.2612,0.23579 0.099,0 0.5879,-0.65064 0.7303,-0.97165 0.3095,-0.69782 0.3336,-1.68048 0.064,-2.58421 -0.2156,-0.72282 -0.6313,-1.65115 -0.7359,-1.64817 z m 25.5217,0 c -0.1108,0.002 -0.6027,1.11936 -0.7715,1.75894 -0.3326,1.2605 -0.1469,2.32705 0.5523,3.17291 0.1236,0.1495 0.2481,0.27219 0.2761,0.27219 0.1008,0 0.5486,-0.605 0.6702,-0.90519 0.2955,-0.729 0.2917,-1.76599 -0.01,-2.75513 -0.1754,-0.57456 -0.6046,-1.50584 -0.7113,-1.54293 0,-4.5e-4 0,-7.5e-4 -0.01,-7.5e-4 z m -21.9366,2.81842 c -0.1079,0.002 -0.3097,0.0726 -0.6726,0.20652 -1.2927,0.47695 -2.1831,1.34004 -2.4647,2.39115 -0.1194,0.4458 -0.1379,0.95523 -0.039,1.06344 0.066,0.0721 0.6863,0.0284 1.0959,-0.0775 l 0.1986,-0.0514 -0.1693,0.13373 c -0.2457,0.19336 -0.6932,0.63974 -1.2248,1.22247 -0.5167,0.56628 -0.7957,1.10672 -0.906,1.75658 -0.073,0.43087 -0.029,1.18145 0.083,1.40921 0.077,0.15798 0.029,0.15897 0.4794,-0.0103 1.2766,-0.47938 1.8436,-1.61653 1.9315,-3.87238 0.028,-0.72348 0.043,-0.79648 0.1843,-0.89885 0.3076,-0.22316 0.6655,-0.6423 0.887,-1.03891 0.2589,-0.46352 0.6587,-1.56541 0.7145,-1.96863 0.025,-0.18134 0.024,-0.26714 -0.098,-0.26507 z m 18.3404,7.5e-4 c -0.113,0.002 -0.1107,0.0864 -0.085,0.26428 0.062,0.43538 0.407,1.41954 0.6591,1.87842 0.261,0.47501 0.6196,0.90722 0.9281,1.11645 0.1605,0.10879 0.2002,0.17894 0.1765,0.31413 -0.046,0.26469 0.1,1.83531 0.2168,2.32706 0.2622,1.1038 0.7698,1.74063 1.6917,2.12371 0.2009,0.0835 0.3861,0.1538 0.4122,0.15588 0.1272,0.0101 0.2094,-0.38062 0.2129,-1.01122 0,-0.64834 -0.01,-0.72126 -0.2414,-1.25176 -0.1812,-0.41579 -0.3644,-0.69174 -0.6978,-1.05156 -0.5498,-0.59332 -0.9833,-1.02245 -1.2099,-1.19875 l -0.1693,-0.13213 0.2319,0.0586 c 0.1278,0.0325 0.4272,0.0599 0.6646,0.0601 h 0.4312 l 0.021,-0.31096 c 0.027,-0.40626 -0.1465,-1.05177 -0.3988,-1.48438 -0.396,-0.6792 -1.2943,-1.36107 -2.2115,-1.67903 -0.3423,-0.11866 -0.5318,-0.18077 -0.6314,-0.17882 z m -23.8127,1.12832 c -0.024,10e-4 -0.045,0.0227 -0.069,0.0585 -0.047,0.0698 -0.1454,0.40896 -0.2192,0.75327 -0.3914,1.82693 -0.1814,3.10666 0.6441,3.93013 0.1964,0.19588 0.3971,0.35606 0.4463,0.35606 0.049,0 0.1505,-0.0838 0.2247,-0.18673 0.4533,-0.62902 0.5699,-1.91279 0.2548,-2.79944 -0.1872,-0.52663 -0.4944,-1.08433 -0.9654,-1.75341 -0.1867,-0.26533 -0.2624,-0.36135 -0.3165,-0.35843 z m 29.2968,0 c -0.054,-0.003 -0.1297,0.0931 -0.3165,0.35843 -1.2082,1.71661 -1.4505,2.94185 -0.8466,4.28699 0.139,0.30971 0.2421,0.45259 0.3252,0.45259 0.067,0 0.2734,-0.14873 0.4589,-0.33074 0.6251,-0.61341 0.9259,-1.59564 0.8427,-2.74959 -0.048,-0.66981 -0.2707,-1.77375 -0.3949,-1.95913 -0.024,-0.0359 -0.044,-0.0572 -0.069,-0.0585 z m 1.4448,4.27353 -0.06,0.038 c -0.1013,-0.007 -0.3029,0.12812 -0.6789,0.39563 -0.7829,0.55704 -1.3569,1.19906 -1.6252,1.81749 -0.1977,0.45565 -0.2144,0.55173 -0.2137,1.21932 0,0.45911 0.032,0.78623 0.087,0.89173 0.1029,0.19866 0.1742,0.18411 0.8545,-0.17328 0.5545,-0.29129 0.8622,-0.6417 1.1608,-1.32376 0.2126,-0.4858 0.4126,-1.43387 0.4882,-2.31202 0.023,-0.26514 0.031,-0.42509 -0.017,-0.48662 v -0.0665 z m -32.1856,0.0103 v 0.0396 c -0.034,0.0201 -0.047,0.0683 -0.047,0.14242 0,0.38077 0.1468,1.431 0.2691,1.92432 0.3024,1.2202 0.7473,1.79946 1.7162,2.23448 0.2048,0.092 0.3932,0.1676 0.4193,0.16854 0.1336,0.005 0.2127,-0.38125 0.2153,-1.04919 0,-0.66987 -0.013,-0.76212 -0.2113,-1.21932 -0.2684,-0.61843 -0.8423,-1.26045 -1.6252,-1.8175 -0.376,-0.26753 -0.5824,-0.39136 -0.6876,-0.39404 l -0.051,-0.0293 z m 27.1501,1.61178 c -0.1331,0 -0.2666,1.04499 -0.2635,2.06595 0,0.79645 0.026,1.00444 0.1496,1.34433 0.2097,0.57642 0.4932,0.96168 0.9574,1.30002 0.2231,0.16263 0.4388,0.28515 0.4787,0.27219 0.04,-0.013 0.1468,-0.18541 0.2381,-0.38297 0.1471,-0.31821 0.1662,-0.4496 0.1662,-1.15601 0,-0.76873 -0.01,-0.81771 -0.2437,-1.35462 -0.3533,-0.80755 -1.2629,-2.08889 -1.4828,-2.08889 z m -22.1241,0.0269 c -0.2225,0.009 -1.0865,1.18731 -1.4408,1.99157 -0.2245,0.50956 -0.2708,0.69693 -0.2968,1.18608 -0.034,0.64782 0.056,1.2104 0.2524,1.56272 0.072,0.12886 0.1553,0.23421 0.1852,0.23421 0.03,0 0.1896,-0.0932 0.3545,-0.20731 0.6635,-0.4593 1.0479,-1.08246 1.1956,-1.93856 0.121,-0.70163 -0.023,-2.59235 -0.2145,-2.81447 -0.01,-0.0102 -0.021,-0.0149 -0.036,-0.0142 z m 27.4864,2.44021 c -0.1101,0.004 -0.3037,0.0463 -0.6187,0.11157 -1.6999,0.35196 -2.5431,0.98142 -2.9213,2.18147 -0.1477,0.46846 -0.1636,0.75413 -0.049,0.87907 0.1136,0.12396 0.8262,0.10839 1.2526,-0.0277 0.1983,-0.0633 0.5016,-0.21279 0.6741,-0.33232 0.6269,-0.43446 1.3787,-1.51225 1.7012,-2.43863 0.039,-0.11174 0.07,-0.19487 0.082,-0.25399 1e-4,-6e-4 -1e-4,-10e-4 0,-0.002 0.01,-0.0108 0.01,-0.0197 0,-0.0269 0.01,-0.0672 -0.026,-0.0943 -0.1234,-0.091 z m -32.87,7.5e-4 c -0.1511,0.009 -0.096,0.1274 0.014,0.43123 0.4632,1.29015 1.3854,2.37605 2.2851,2.69025 0.4297,0.15006 1.2023,0.17897 1.3206,0.0498 0.1145,-0.12495 0.099,-0.41061 -0.049,-0.87907 -0.3782,-1.20005 -1.2214,-1.82951 -2.9212,-2.18148 -0.3453,-0.0715 -0.5455,-0.11686 -0.6489,-0.11077 z m 6.0736,1.0848 c -0.1139,0.002 -0.7483,0.98513 -1.0183,1.57854 -0.5352,1.17587 -0.5545,2.32788 -0.055,3.25915 0.091,0.16944 0.1888,0.3078 0.2184,0.3078 0.082,0 0.5496,-0.38913 0.75,-0.6243 0.67,-0.78603 0.7948,-2.16239 0.349,-3.84151 -0.089,-0.3355 -0.1614,-0.62632 -0.1614,-0.64566 0,-0.0193 -0.037,-0.0347 -0.083,-0.034 z m 20.7362,0.002 c -0.038,0.002 -0.066,0.0155 -0.066,0.0324 0,0.0193 -0.073,0.31216 -0.163,0.65041 -0.5408,2.03675 -0.2868,3.40558 0.7896,4.25771 0.1437,0.11367 0.2934,0.19524 0.3324,0.18119 0.1265,-0.0455 0.4347,-0.79972 0.5095,-1.24621 0.1374,-0.81931 -0.05,-1.74446 -0.5372,-2.64594 -0.3291,-0.60927 -0.7557,-1.22724 -0.8483,-1.2296 -0.01,-1.4e-4 -0.011,-3e-4 -0.017,0 z m -26.1713,2.18306 c -0.025,7.5e-4 -0.04,0.007 -0.048,0.0206 -0.051,0.006 -0.08,0.0151 -0.08,0.0261 0,0.16199 0.2096,0.59296 0.4835,0.99618 0.5551,0.81728 1.2848,1.44898 1.9267,1.66795 0.3602,0.12289 1.2267,0.1301 1.4416,0.0119 0.091,-0.0503 0.1765,-0.16523 0.1883,-0.25558 0.029,-0.22184 -0.3153,-1.00577 -0.5934,-1.35145 -0.2484,-0.30882 -1.0358,-0.8889 -1.3523,-0.99618 -0.2238,-0.0759 -1.3769,-0.13066 -1.8689,-0.10919 -0.042,-0.007 -0.075,-0.011 -0.098,-0.0103 z m 31.1602,0.005 c -0.5581,0.007 -1.3379,0.0579 -1.5279,0.12185 -0.1238,0.0416 -0.2735,0.11981 -0.3324,0.17407 -0.059,0.0543 -0.244,0.18381 -0.4114,0.28802 -0.4094,0.25483 -0.7646,0.69992 -1.0025,1.25492 -0.2259,0.52678 -0.2233,0.74827 0.012,0.88382 0.113,0.0651 0.3593,0.0877 0.7707,0.0712 0.5234,-0.021 0.664,-0.0566 1.0476,-0.26269 0.5082,-0.27308 1.0996,-0.84158 1.539,-1.47964 0.2817,-0.4091 0.4953,-0.84377 0.4953,-1.00963 0,-0.034 -0.2554,-0.0461 -0.5903,-0.0419 z m -24.2819,0.0206 c -0.089,0 -0.4551,0.82071 -0.6781,1.52236 -0.1438,0.45249 -0.177,0.64571 -0.1827,1.21931 -0.014,0.2005 -0.014,0.39332 0,0.57841 0.01,0.48184 0.041,0.62412 0.1701,0.92418 0.095,0.22109 0.2705,0.5225 0.3893,0.67018 0.1188,0.14769 0.2676,0.26823 0.3308,0.26823 0.1533,0 0.5028,-0.48543 0.7184,-0.99776 0.2494,-0.59268 0.2819,-1.43986 0.085,-2.23448 -0.152,-0.61484 -0.7229,-1.95043 -0.834,-1.95043 z m 17.8656,0.003 c -0.1106,0.005 -0.6798,1.32557 -0.826,1.9172 -0.27,1.09203 -0.1311,2.11328 0.39,2.86669 0.16,0.23125 0.3258,0.39562 0.398,0.39562 0.1687,0 0.5194,-0.45113 0.7288,-0.93842 0.156,-0.363 0.1725,-0.48682 0.1725,-1.27232 0,-0.76311 -0.023,-0.94083 -0.1844,-1.44957 -0.2255,-0.70965 -0.5889,-1.52295 -0.6789,-1.5192 z m -16.2245,2.07624 c -0.051,-0.003 -0.085,0.0378 -0.1132,0.11315 -0.094,0.24996 -0.12,2.17332 -0.036,2.64356 0.1579,0.87928 0.5354,1.49803 1.19,1.95122 0.165,0.11415 0.3405,0.2081 0.3901,0.2081 0.1362,0 0.3438,-0.58129 0.4083,-1.14178 0.1308,-1.13707 -0.2052,-2.00293 -1.2557,-3.23066 -0.322,-0.37639 -0.486,-0.53851 -0.5839,-0.54359 z m 14.5843,0 c -0.098,0.005 -0.2619,0.16715 -0.584,0.54359 -0.7807,0.91249 -1.1467,1.60011 -1.2612,2.3682 -0.072,0.48357 0.016,1.24613 0.1954,1.68774 0.1421,0.35049 0.1831,0.36758 0.4811,0.19939 0.6173,-0.34845 1.1549,-1.18429 1.3206,-2.05329 0.08,-0.42148 0.051,-2.39488 -0.039,-2.63248 -0.028,-0.0753 -0.062,-0.1158 -0.1131,-0.11315 z m -19.676,0.87116 c -0.5999,0.006 -1.6778,0.1596 -1.8056,0.2991 -0.063,0.0692 0.3028,0.60812 0.6345,0.93367 0.4789,0.46993 1.0359,0.85879 1.501,1.04761 0.7151,0.29028 1.9413,0.17469 2.1855,-0.20572 0.089,-0.13808 0.085,-0.18255 -0.036,-0.4431 -0.3188,-0.68203 -1.1092,-1.35423 -1.7139,-1.45748 -0.1625,-0.0278 -0.3322,-0.0833 -0.3774,-0.12423 -0.041,-0.037 -0.1877,-0.0518 -0.3877,-0.0498 z m 25.0351,0.034 c -0.7239,-10e-4 -1.2135,0.12028 -1.7154,0.42648 -0.3546,0.21634 -0.8453,0.77377 -1.031,1.17105 -0.1221,0.2611 -0.1256,0.30484 -0.036,0.44389 0.054,0.0848 0.2395,0.20182 0.4114,0.25953 0.496,0.16654 1.2621,0.14385 1.755,-0.0514 0.4807,-0.19045 1.031,-0.57089 1.52,-1.05078 0.3317,-0.32555 0.698,-0.86443 0.6346,-0.93367 -0.1062,-0.11594 -0.9656,-0.26406 -1.5382,-0.26507 z m -17.7794,1.5999 0.043,0.2445 c 0.024,0.13474 0.198,0.58785 0.3877,1.00647 0.2749,0.60675 0.4394,0.86497 0.811,1.27312 0.4725,0.51896 0.7573,0.7109 1.2969,0.87591 0.1643,0.0503 0.4629,0.0849 0.6638,0.0768 l 0.3656,-0.015 v -0.20256 c 0.01,-0.0526 0.01,-0.12231 0,-0.21285 v -0.068 c -0.01,-0.91082 -0.5818,-1.80801 -1.4638,-2.29304 -0.4573,-0.25151 -1.3169,-0.55811 -1.7755,-0.633 l -0.3228,-0.0522 z m 10.0885,0.0182 c -0.09,0 -0.4288,0.0831 -0.7525,0.18436 -1.2882,0.40297 -2.0381,0.9638 -2.4189,1.808 -0.1982,0.43957 -0.3204,1.14196 -0.2389,1.37361 0.085,0.243 1.2011,0.0676 1.7004,-0.26744 0.3738,-0.25087 0.7956,-0.70646 1.0832,-1.16868 0.2975,-0.47813 0.675,-1.33708 0.7446,-1.69406 0.042,-0.21567 0.032,-0.23579 -0.1179,-0.23579 z m -14.3098,0.87433 c -0.1184,-3e-4 -0.2591,0.003 -0.4344,0.009 -0.77,0.0262 -0.8358,0.0407 -1.3736,0.30621 -0.3105,0.15333 -0.5922,0.30717 -0.6266,0.34182 -0.1815,0.18248 0.9056,0.9831 1.7874,1.31664 0.4718,0.17851 0.6097,0.19962 1.1971,0.17882 0.5679,-0.0201 0.7168,-0.0532 1.0247,-0.22392 0.3504,-0.19428 0.518,-0.34639 0.527,-0.52539 0,-4.5e-4 0,-0.001 0,-0.002 0.01,-0.0138 0.01,-0.0266 0.01,-0.038 0,-0.0197 -0.01,-0.0453 -0.023,-0.0752 -0.027,-0.0932 -0.09,-0.19592 -0.1859,-0.31571 -0.2828,-0.35154 -0.6951,-0.65116 -1.1505,-0.83714 -0.2456,-0.1003 -0.3955,-0.13436 -0.7509,-0.1353 z m 18.6988,0 c -0.3554,9e-4 -0.5061,0.035 -0.7517,0.1353 -0.6253,0.25539 -1.3301,0.88361 -1.3562,1.20112 0,0.008 0,0.015 0,0.0214 0,0.007 0,0.0147 0,0.0229 0,9e-4 0,0.002 0,0.003 0.024,0.23975 0.312,0.48154 0.7976,0.66703 0.502,0.19178 1.328,0.15408 1.971,-0.0902 0.8932,-0.33939 1.9555,-1.12061 1.7732,-1.30398 -0.034,-0.0347 -0.317,-0.18849 -0.6275,-0.34182 -0.5377,-0.26557 -0.6027,-0.28005 -1.3728,-0.30622 -0.1753,-0.006 -0.3159,-0.009 -0.4344,-0.009 z m -15.3605,1.71384 c -0.047,-0.001 -0.085,0.003 -0.1124,0.015 -0.084,0.0361 -0.3203,0.10272 -0.5253,0.14796 -0.2051,0.0452 -0.5786,0.19158 -0.8301,0.32521 -0.5874,0.31211 -1.387,0.91873 -1.387,1.05236 0,0.16229 0.5534,0.4324 1.2011,0.58631 1.14,0.2709 2.1482,0.0992 2.8501,-0.48582 0.2756,-0.22969 0.4977,-0.59624 0.4977,-0.82132 0,-0.23248 -1.2431,-0.8077 -1.6941,-0.81973 z m 12.0222,0 c -0.451,0.0121 -1.694,0.58725 -1.694,0.81974 0,0.4795 0.6673,1.09684 1.4606,1.35066 0.4242,0.13573 1.5628,0.0728 2.1918,-0.12106 0.501,-0.15447 0.9297,-0.38949 0.9297,-0.50957 0,-0.10473 -0.9247,-0.78978 -1.4203,-1.05236 -0.2515,-0.13323 -0.6249,-0.27917 -0.83,-0.32441 -0.2051,-0.0452 -0.4415,-0.11183 -0.5254,-0.14796 -0.027,-0.0118 -0.066,-0.0163 -0.1124,-0.015 z m -6.0111,0.74694 c -0.2949,0 -0.4616,0.11811 -0.572,0.4067 -0.1197,0.31243 -0.027,0.76512 0.1898,0.9313 0.08,0.0613 0.2524,0.11157 0.3822,0.11157 0.3186,0 0.513,-0.16512 0.5974,-0.50719 0.055,-0.22142 0.049,-0.3408 -0.025,-0.53568 -0.1105,-0.28859 -0.2771,-0.4067 -0.5721,-0.4067 z m -2.6546,0.53647 c -0.4423,-0.003 -0.9028,0.13956 -1.4092,0.43281 -0.5706,0.33041 -1.5809,1.17033 -1.5809,1.31426 0,0.17729 0.5273,0.36189 1.4274,0.50007 0.4248,0.0652 1.3438,-0.0216 1.7083,-0.16141 0.7247,-0.27804 1.3174,-0.86767 1.3372,-1.33088 0,-0.0212 0,-0.0404 0,-0.0585 l 0.01,-0.0134 -0.01,-0.008 c -0.01,-0.14034 -0.061,-0.19701 -0.265,-0.32124 -0.151,-0.092 -0.4681,-0.21944 -0.705,-0.28327 -0.169,-0.0455 -0.3397,-0.0692 -0.5128,-0.0704 z m 5.2887,0.009 c -0.3437,0.005 -0.6838,0.091 -1.0326,0.25478 -0.4275,0.20074 -0.4966,0.29362 -0.4376,0.5871 0.1044,0.5186 1.0084,1.21431 1.7709,1.36332 0.8974,0.17542 2.71,-0.13902 2.71,-0.47 0,-0.049 -0.2406,-0.29675 -0.5349,-0.5507 -0.9429,-0.81356 -1.7196,-1.19547 -2.4758,-1.1845 z"
       style="fill:#000000;fill-opacity:1;stroke:none" />
  </g>
</svg>
