<?xml version="1.0" encoding="UTF-8" standalone="no"?>
<svg
   xmlns="http://www.w3.org/2000/svg"
   width="40"
   height="40"
   id="svg5257"
   version="1.1">
  <g
     id="layer1"
     transform="translate(-204.45465,-347.19325)">
    <path
       id="path10477-6-1-4"
       d="m 226.43213,351.74022 c -0.4277,0.0588 -0.9223,-0.0765 -1.2954,0.19078 -0.097,0.19726 0.192,0.29913 0.3427,0.27029 1.2418,0.0555 2.5083,0.0837 3.6892,0.50528 0.8879,0.274 1.6605,0.81769 2.4419,1.28584 0.081,0.0814 0.4199,0.23888 0.2492,0.36761 -0.6649,0.0923 -1.1551,-0.49043 -1.7765,-0.61658 -0.8098,-0.33005 -1.5989,-0.86196 -2.5133,-0.80046 -0.5778,-0.0183 -1.1781,-0.12371 -1.7364,0.0691 -0.1254,0.19809 0.1419,0.32397 0.3055,0.32212 0.8325,0.12897 1.7032,0.11975 2.4911,0.43444 0.8901,0.25017 1.68,0.78266 2.3435,1.40565 0.1414,0.3475 -0.2352,0.62901 -0.4894,0.79492 -0.2537,0.14401 -0.3804,-0.25143 -0.618,-0.27096 -0.7347,-0.35457 -1.4051,-0.93632 -2.2622,-0.93491 -0.8953,-0.14612 -1.8034,-0.13509 -2.7051,-0.19873 -0.1375,-0.10761 -0.072,-0.34577 -0.026,-0.47834 0.2336,0.0403 0.4796,0.14259 0.7285,0.15622 0.5331,0.0593 1.0845,0.089 1.612,0.0346 0.085,0.23754 0.5373,0.0984 0.3913,-0.14793 -0.07,-0.14384 -0.2357,-0.099 -0.354,-0.0926 -0.338,-0.28903 -0.8151,-0.004 -1.1871,-0.20883 -0.4085,-0.11778 -0.852,-0.18835 -1.1935,-0.45891 -0.026,-0.4266 -0.071,-0.88495 0.1382,-1.27188 -0.1553,-0.36584 -0.6299,-0.24987 -0.9442,-0.29328 -1.2757,-0.0291 -2.5563,0.0795 -3.8156,0.26978 -0.3512,0.10965 -0.7459,0.0752 -1.0715,0.26405 -0.4251,0.009 -0.8335,0.18842 -1.1129,0.51014 -0.3638,0.26175 -0.7812,0.42909 -1.1723,0.64009 -0.3384,0.0335 -0.6641,0.10465 -0.9885,0.19769 -0.6028,0.21503 -1.0281,0.73433 -1.3673,1.24562 -0.3611,0.40286 -0.9097,0.67633 -1.0506,1.2387 -0.1944,0.68822 -0.1654,1.45276 0.063,2.12903 0.1865,0.25018 0.4271,0.4952 0.4092,0.83364 -0.01,0.58276 -0.3582,1.09961 -0.3552,1.68801 -0.03,0.63104 0,1.29788 -0.2959,1.87188 -0.2329,0.75798 -0.7961,1.36748 -1.0136,2.1374 -0.307,0.83788 -0.6726,1.65156 -1.0864,2.43586 -0.1862,0.40192 -0.3262,0.95365 0.033,1.30506 0.2968,0.36504 0.7876,0.43826 1.229,0.37742 0.3074,-0.002 0.6293,0.0138 0.9014,0.17005 0.055,0.5211 -0.01,1.09358 0.3166,1.54147 0.1511,0.3235 0.1743,0.73829 -0.069,1.01889 -0.3279,0.78678 0.1627,1.67475 -0.1811,2.46082 -0.1753,0.38127 -0.5617,0.66264 -0.589,1.11013 -0.096,0.48767 -0.1439,1.10721 0.2627,1.46958 0.4268,0.15832 0.5817,0.63095 0.7826,0.99569 0.1392,0.4589 0.4087,0.88305 0.8142,1.15131 0.3015,0.21974 0.6702,0.39096 1.0451,0.39401 0.4846,-0.23743 1.0701,-0.22083 1.5287,0.0679 0.3811,0.20071 0.7759,0.38528 1.192,0.4851 0.5557,0.35279 0.5369,1.32379 -0.087,1.59401 -0.2213,0.22031 -0.3952,0.62485 -0.1964,0.91658 0.8417,0.45877 1.8571,0.33099 2.7709,0.20502 0.6857,-0.17507 1.3603,-0.40606 2.073,-0.43935 0.4062,-0.01 0.7982,-0.11135 1.1856,-0.20968 1.7894,-0.19105 3.5911,-0.0434 5.3857,-0.0874 0.826,0.007 1.6846,0.0871 2.483,-0.14319 0.2325,-0.19684 0.045,-0.53064 -0.157,-0.66949 -0.3357,-0.34 -0.7771,-0.78979 -0.6352,-1.31161 0.1678,-0.32029 0.6114,-0.17827 0.9014,-0.19493 0.5965,-0.0167 1.0407,-0.45683 1.4599,-0.82811 0.2211,-0.20371 0.557,-0.14865 0.8004,-0.3235 0.5844,-0.33399 1.0271,-0.89948 1.2608,-1.52211 0.1,-0.27515 0.033,-0.56859 -0.093,-0.81705 -0.011,-0.35388 0.4519,-0.48117 0.5115,-0.81567 0.3322,-0.78678 -0.107,-1.68857 -0.7382,-2.18017 -0.3213,-0.2541 -0.073,-0.67866 0.054,-0.96636 0.1257,-0.2124 0.2063,-0.4805 0.054,-0.70092 -0.103,-0.19625 -0.3137,-0.50912 -0.028,-0.66221 0.3499,-0.29482 0.5228,-0.79614 0.3415,-1.23179 -0.038,-0.16702 -0.1919,-0.37648 -0.1383,-0.52949 0.658,-0.098 1.4391,-0.0302 1.9631,-0.51705 0.3825,-0.42313 0.2718,-1.06569 0,-1.51539 -0.5937,-1.31686 -1.3134,-2.56942 -2.0117,-3.83082 -0.2764,-0.4751 -0.4883,-1.00208 -0.4306,-1.56204 0,-0.65523 -0.1238,-1.30831 -0.3865,-1.90647 -0.082,-0.23824 0.033,-0.46704 0.2087,-0.62488 0.5745,-0.72856 0.9412,-1.76159 0.5337,-2.65575 -0.2173,-0.44506 -0.3974,-0.92809 -0.7991,-1.24285 -0.8608,-0.809 -1.9693,-1.2726 -2.9778,-1.86896 -1.0579,-0.58311 -2.1756,-1.08811 -3.3867,-1.23154 -0.6516,-0.076 -1.3044,-0.1965 -1.9608,-0.19949 z m -1.2829,1.16681 c -0.2263,0.0215 -0.2196,0.39805 0.014,0.39954 0.194,0.0809 0.6047,0.0238 0.535,-0.25576 -0.1056,-0.17269 -0.3779,-0.13775 -0.5489,-0.14378 z m 7.6078,1.88018 c 0.7538,0.031 1.351,0.59643 1.8497,1.11428 0.1503,0.19167 -0.077,0.40782 0.01,0.61936 0.081,0.37815 0.2528,0.90078 -0.1258,1.1834 -0.1913,0.18462 -0.4836,0.41235 -0.7424,0.22258 -0.5994,0.0716 -1.1477,-0.21267 -1.6079,-0.56958 -0.3444,-0.26648 -0.702,-0.58233 -0.8778,-0.98018 -0.1096,-0.84712 0.6535,-1.61914 1.4944,-1.58986 z m -7.2194,0.40922 c 0.4098,-0.02 0.8108,0.16088 1.2111,0.14378 0.4225,-0.0537 0.8544,0.069 1.2677,0.15207 0.894,0.24504 1.643,0.84883 2.4608,1.22903 -0.057,0.0825 -0.2344,-0.005 -0.3234,0.007 -0.2863,-0.075 -0.5884,0.0259 -0.7563,0.26958 -0.1557,0.18199 -0.3963,0.45719 -0.6497,0.27235 -0.6615,-0.38095 -1.3957,-0.72824 -2.1816,-0.64686 -0.5252,0.005 -1.1194,0.10545 -1.5857,-0.17986 -0.3677,-0.44413 -0.088,-1.30934 0.5571,-1.247 z m 4.6175,1.87879 c 0.3148,0.0375 0.5695,0.29805 0.8987,0.28341 0.63,0.1527 1.1779,0.89157 0.8599,1.53041 -0.2272,0.49262 -0.838,0.54763 -1.2996,0.40507 -0.1865,-0.0119 -0.4689,-0.26882 -0.5931,-0.0221 -0.061,0.34015 0.1826,0.70544 -0.033,1.0258 -0.1147,0.22766 -0.3706,0.33033 -0.6096,0.29171 -0.2924,0.0835 -0.2583,0.45788 -0.1811,0.68156 0.089,0.43206 -0.4581,0.65606 -0.8143,0.58341 -0.8773,-0.13978 -1.4847,-1.00557 -1.4751,-1.86912 -0.1,-0.29081 -0.5836,-0.17493 -0.5751,0.12166 -0.043,0.51408 -0.5087,0.81352 -0.7106,1.25944 -0.2096,0.35428 -0.4116,0.72803 -0.7327,0.99539 -0.081,-0.96685 -0.1026,-1.95916 0.015,-2.92119 0.2259,-0.2781 0.6331,-0.0808 0.9359,-0.15069 0.369,-0.0532 0.6385,0.21973 0.9359,0.3788 0.4537,0.16853 1.0386,-0.21742 0.9636,-0.72304 0.058,-0.30053 0.4981,-0.4547 0.4245,-0.79078 -0.1077,-0.25062 -0.4092,-0.0673 -0.5254,0.0747 -0.2179,0.19151 -0.2963,0.46329 -0.4452,0.70092 -0.099,0.12951 -0.2498,-0.10064 -0.3912,-0.10231 -0.5717,-0.19365 -1.259,0.055 -1.7682,-0.31382 -0.3218,-0.3545 -0.1396,-0.87874 -0.1617,-1.30783 0.9328,0.12596 1.9446,-0.0699 2.8092,0.35944 0.2905,0.0868 0.7065,0.14746 0.7562,0.52258 0.096,0.21585 0.2537,0.39648 0.3719,0.60276 0.1334,0.21512 0.5304,0.34937 0.6428,0.0484 0.1073,-0.31645 -0.2458,-0.62597 -0.083,-0.947 0.1136,-0.35451 0.3992,-0.68894 0.7852,-0.71751 z m 3.6152,1.88848 c 0.4046,0.0797 0.466,0.56964 0.5572,0.90137 0.1824,0.44193 0.1636,0.92402 0.09,1.3894 -0.1042,0.84596 0.5023,1.53069 0.888,2.22103 0.4792,0.99897 1.0471,1.96929 1.5341,2.96328 0.1448,0.33051 0.3346,0.66117 0.4106,1.00645 -0.096,0.47752 -0.6735,0.60404 -1.088,0.51429 -0.7178,-0.0955 -1.4924,0.037 -2.1484,-0.31798 -0.1956,0.0394 -0.4316,-0.1133 -0.3566,-0.33732 0.082,-0.40058 0.5908,-0.44782 0.9179,-0.35253 0.2033,0.0458 0.4238,0.18572 0.6263,0.0608 0.1902,0.205 0.4916,0.20671 0.7424,0.27649 0.2934,0.0303 0.3348,-0.42413 0.022,-0.39401 -0.1259,0.0286 -0.2348,0.0107 -0.3166,-0.0899 -0.1963,-0.0872 -0.4435,0.0376 -0.5972,-0.1659 -0.5938,-0.32132 -1.4803,-0.23986 -1.8221,0.40092 -0.235,0.39354 -0.1435,0.88806 0.069,1.27051 -0.032,0.34046 -0.4493,0.43492 -0.6539,0.65668 -0.5644,0.39273 -0.9714,0.96559 -1.2346,1.59538 -0.1619,0.26977 -0.506,0.38558 -0.6719,0.63456 0.028,-0.29318 -0.4519,-0.29534 -0.5101,-0.0359 -0.1016,0.22629 0.182,0.45309 0.376,0.29723 0.078,-0.0191 0.1042,-0.19874 0.1438,-0.0622 0.102,0.17864 0.3784,0.0123 0.4742,0.16313 -0.042,0.43905 -0.3507,0.88678 -0.7673,1.04516 -0.1945,0.0656 -0.3668,-0.0495 -0.5046,-0.16175 -0.2703,-0.10499 -0.424,-0.37807 -0.5889,-0.57788 -0.2551,-0.083 -0.312,0.26711 -0.4922,0.34701 -0.3765,0.0275 -0.7858,-0.15996 -1.0119,-0.46314 -0.1718,-0.35715 -0.03,-0.76623 0.032,-1.1281 0.038,-0.14384 0.204,-0.11993 0.2461,0.011 0.1155,0.20231 0.2947,0.4363 0.5503,0.41475 0.073,0.13964 0.2893,0.34603 0.3967,0.12442 0.098,-0.20023 0.264,0.0772 0.3954,0.094 0.1808,0.107 0.5702,0.11448 0.553,-0.17696 -0.1113,-0.27619 -0.4382,-0.52058 -0.7465,-0.45898 -0.1627,0.0294 -0.2217,-0.17552 -0.3913,-0.15069 -0.1604,-0.0176 -0.1069,-0.24877 -0.2709,-0.27927 -0.3214,-0.0523 -0.5797,-0.29594 -0.6664,-0.61382 -0.1126,-0.51933 -0.5669,-0.84332 -0.8599,-1.25529 -0.1465,-0.23159 0.2419,-0.33823 0.2461,-0.56406 0.24,-0.60652 0.2817,-1.30322 0.076,-1.92027 0.1206,-0.47904 0.6142,-0.69404 0.9055,-1.06175 0.2892,-0.23005 0.5643,-0.55053 0.4876,-0.95113 -0.01,-0.38878 0.082,-0.83078 0.4594,-1.02029 0.7031,-0.49188 1.0387,-1.32411 1.4738,-2.02672 0.1874,-0.0624 0.4444,-0.0161 0.6511,-0.0926 0.6803,-0.16535 1.2774,-0.70451 1.3991,-1.41014 0.1254,-0.28327 0.5132,-7.5e-4 0.6995,-0.21567 0.078,-0.0604 0.1779,-0.0973 0.2765,-0.10368 z m -18.1202,0.0442 c 0.3619,0.19261 0.4088,0.67452 0.7161,0.92765 0.2775,0.32673 0.7013,0.45479 1.1088,0.50461 0.6105,0.26663 0.7491,1.06448 1.3839,1.30091 0.3533,0.18065 0.7106,0.37673 1.1184,0.38434 0.4253,0.24611 0.3732,0.82192 0.6802,1.16819 0.1571,0.26855 0.4308,0.42276 0.6511,0.61797 0.085,0.3184 0.3515,0.58502 0.6747,0.65115 0.2528,0.2 0.5196,0.41543 0.6442,0.72028 -0.5149,0.46352 -1.0776,1.05851 -1.012,1.80967 0.01,0.39674 0.2132,0.76149 0.2765,1.13916 -0.1505,0.35139 -0.303,0.71036 -0.405,1.07696 -0.1989,0.13348 -0.4789,0.10842 -0.6457,0.3 -0.2957,0.14999 -0.5081,0.40678 -0.6718,0.68433 -0.1715,0.20253 -0.4435,0.23413 -0.683,0.28756 -0.3087,0.12928 -0.503,0.45633 -0.7576,0.63041 -0.2613,-0.24317 -0.7412,0.0507 -0.9359,-0.28065 -0.1591,-0.48464 -0.2556,-1.01533 -0.5337,-1.45852 -0.2141,-0.43075 -0.6427,-0.69858 -0.8889,-1.10322 -0.1403,-0.28048 0.1563,-0.54576 0.08,-0.83778 -0.099,-0.86969 -1.0352,-1.49253 -1.8774,-1.36866 -0.3332,0.095 -0.667,0.21184 -0.9913,0.33456 -0.2415,0.0957 -0.4608,0.37874 -0.2931,0.63318 0.1246,0.25404 0.4707,0.28089 0.6526,0.076 0.3999,-0.0667 0.6386,-0.59577 1.0866,-0.43824 0.4211,0.1012 0.7445,0.68808 0.4369,1.04792 -0.2739,0.13089 -0.6234,0.069 -0.9014,-0.0276 -0.5748,-0.28154 -1.2026,0.0908 -1.7972,0.0753 -0.3037,0.003 -0.6704,0.0525 -0.9291,-0.0891 0.027,-0.43901 0.3477,-0.79069 0.4894,-1.19861 0.5283,-1.06695 0.8728,-2.21424 1.409,-3.28013 0.2832,-0.60383 0.4801,-1.24784 0.6191,-1.89589 0.1871,-0.52196 -0.079,-1.12178 0.1908,-1.62303 0,-0.31838 0.3512,-0.42717 0.6014,-0.50185 0.1776,-0.0683 0.3282,-0.20916 0.5032,-0.26682 z m 12.7119,0.66636 c -0.2466,0.0124 -0.3243,0.48386 -0.036,0.47696 0.083,-0.0229 0.1926,-0.11069 0.1355,0.0346 -0.037,0.25945 0.2787,0.23729 0.4368,0.31797 0.1686,0.18787 0.4728,-0.0207 0.4093,-0.24746 -0.021,-0.16041 -0.2076,-0.18313 -0.318,-0.20323 -0.086,-0.14459 -0.3105,-0.21501 -0.43,-0.0733 0.051,-0.14886 -0.018,-0.33287 -0.1977,-0.30553 z m -12.6303,0.95668 c -0.4379,0.0311 -0.8438,0.45346 -0.73,0.90829 0.041,0.48301 0.2827,0.914 0.5226,1.32027 0.1417,0.7677 0.226,1.56059 0.5088,2.28663 0,0.28794 -0.2524,0.64949 0,0.8917 0.2216,0.0922 0.3397,-0.19453 0.3719,-0.36497 0.041,-0.24779 0.189,-0.47628 0.4451,-0.5364 0.7629,-0.27504 1.5743,-0.41685 2.3737,-0.52811 0.2826,0.0569 0.5707,0.25013 0.8696,0.10921 0.2361,-0.0466 0.4135,-0.29411 0.3042,-0.52534 -0.4073,-1.02157 -1.2656,-1.77284 -2.1187,-2.42753 -0.522,-0.33594 -1.0625,-0.65872 -1.5753,-1.00656 -0.3039,-0.12086 -0.6425,-0.13382 -0.9678,-0.12719 z m 18.0137,0.22534 c -0.6372,0.0377 -1.065,0.5893 -1.6505,0.78213 -1.0238,0.49038 -1.9247,1.20635 -2.79,1.92893 -0.2221,0.20436 -0.055,0.51834 0.1535,0.65391 0.161,0.21011 0.4547,0.34079 0.7064,0.26405 0.097,0.19803 0.3523,0.19106 0.4991,0.33457 0.6009,0.32921 1.3929,0.44537 1.7455,1.1065 0.1654,0.22136 0.196,0.53322 0.3642,0.73635 0.1875,0.0927 0.3639,-0.11388 0.34,-0.29585 0.068,-0.43084 -0.2095,-0.80059 -0.3096,-1.19309 -0.016,-0.61376 0.3709,-1.15662 0.347,-1.77511 0.045,-0.43685 -0.067,-0.97949 0.2862,-1.30921 0.4246,-0.11999 0.8622,-0.51967 0.7686,-0.99815 -0.053,-0.19015 -0.2866,-0.24719 -0.4604,-0.23503 z m -7.2345,0.57097 c 0.1897,0.0518 0.4238,0.19081 0.4493,0.38571 -0.2609,0.0137 -0.5703,0.10022 -0.8046,-0.0484 0.032,-0.16143 0.1698,-0.36149 0.3553,-0.33733 z m -10.1281,0.38295 c 0.6805,0.0124 1.2493,0.45823 1.8373,0.74654 0.2646,0.18109 0.5525,0.47278 0.6941,0.73272 -0.2317,-0.0336 -0.3554,-0.29023 -0.5572,-0.39263 -0.6193,-0.48957 -1.3925,-0.7221 -2.1138,-1.01889 -0.1115,-0.0131 -0.2816,0.0685 -0.3456,0.0456 0.1295,-0.12857 0.3188,-0.10426 0.4852,-0.11336 z m 9.394,0.29309 c -0.042,0.10065 -0.1733,0.2773 -0.2723,0.26128 0.056,-0.1089 0.1672,-0.22622 0.2723,-0.26128 z m 1.3465,0.19354 c 0.6423,0.047 0.8886,0.84423 0.7342,1.38802 -0.1567,0.66898 -0.9641,0.88689 -1.554,0.71198 -0.2192,-0.0374 -0.4714,-0.0662 -0.5903,-0.29171 -0.2446,-0.41207 -0.2777,-1.04619 0.1586,-1.34857 0.2909,-0.32011 0.728,-0.36718 1.1285,-0.43207 0.042,-0.005 0.081,-0.0251 0.123,-0.0276 z m -12.6151,0.19632 c -0.3331,0.18895 -0.3419,0.66767 -0.271,0.99815 0.1466,0.18002 0.3619,-0.0523 0.3885,-0.21429 0.059,-0.23164 0.2454,-0.56326 0.018,-0.75483 -0.042,-0.0248 -0.088,-0.0346 -0.1355,-0.029 z m 17.776,0.12995 c 0.4063,0.30405 0.3469,0.9151 0.1465,1.3258 -0.069,0.24916 -0.1177,0.60525 -0.3968,0.69954 -0.3572,-0.0562 -0.6624,-0.27891 -1.005,-0.3788 -0.1492,-0.091 -0.4627,-0.27312 -0.2973,-0.48387 0.4052,-0.49028 0.909,-1.02072 1.5526,-1.16267 z m -15.8405,0.011 c 0.6626,0.33218 1.3205,0.77858 1.7557,1.3894 -0.034,0.23702 -0.3728,0.16482 -0.535,0.21705 -0.3588,0.01 -0.6753,0.20299 -1.0175,0.25023 -0.4008,-0.47108 -0.3655,-1.14865 -0.3083,-1.72949 0.018,-0.0393 0.038,-0.1855 0.1051,-0.12719 z m 18.0593,0.0829 c -0.2649,0.18994 -0.042,0.55012 0.027,0.78497 0.203,0.41912 0.2773,0.93355 0.6224,1.26387 0.1749,0.16914 0.3173,-0.12593 0.2364,-0.27926 -0.17,-0.47745 -0.3471,-0.95894 -0.5433,-1.42949 -0.079,-0.11514 -0.1706,-0.38101 -0.3429,-0.34009 z m -20.3612,1.09631 c -0.4196,0.55622 -0.5747,1.28214 -1.1018,1.75576 -0.1881,0.27328 -0.5088,0.51816 -0.4742,0.88617 0.1706,0.21978 0.4245,-0.0503 0.5219,-0.2068 0.4763,-0.63472 1.0767,-1.23736 1.2145,-2.0508 0.099,-0.14516 0.11,-0.42597 -0.1244,-0.43272 l -0.026,0.0355 -0.01,0.0129 z m 10.9839,0.91106 c 0.1063,0.1333 -0.1659,0.27749 -0.2447,0.24193 0.044,-0.10793 0.1285,-0.21117 0.2447,-0.24193 z m 10.5124,0.48663 c -0.266,0.14991 0.1123,0.586 0.282,0.32074 0.07,-0.15695 -0.116,-0.38837 -0.282,-0.32074 z m -9.9677,0.2212 c 0.5918,-0.002 0.9256,0.66346 0.8585,1.19032 -0.052,0.40046 -0.1877,0.84784 -0.5171,1.10598 -0.1669,0.13598 -0.3358,-0.0939 -0.5143,-0.003 -0.1903,0.0437 -0.3926,0.27733 -0.5917,0.16036 -0.2357,-0.51216 0.058,-1.07675 0.1134,-1.60506 0.024,-0.34172 0.1457,-0.83613 0.571,-0.8447 0.027,-0.002 0.053,-0.003 0.08,-0.004 z m 8.8755,3.37464 c 0.4267,-0.006 0.8305,0.46976 0.6746,0.88064 -0.3412,0.32953 -0.8647,0.14304 -1.2819,0.28583 -0.4356,0.0695 -0.8349,0.40913 -0.8581,0.86717 -0.2303,0.97888 -0.1903,2.00594 0.025,2.98201 0.073,0.42181 -0.085,0.86666 -0.4382,1.11705 -0.392,0.38942 -1.1656,0.42282 -1.4502,-0.10922 -0.2093,-0.37517 -0.2713,-0.99398 0.1465,-1.23732 0.2651,-0.061 0.34,0.27952 0.3249,0.47281 -0.047,0.27156 0.3852,0.49462 0.524,0.22258 0.1417,-0.62104 -0.2005,-1.22542 -0.3235,-1.81935 -0.2123,-0.95319 -0.053,-2.05783 0.629,-2.79538 0.5403,-0.51515 1.2773,-0.84885 2.0281,-0.86682 z m -7.9728,0.12304 c 0.6272,-0.006 1.0519,0.87505 0.6401,1.34516 -0.5649,0.34196 -1.4218,-0.14975 -1.4488,-0.80322 0.038,-0.37599 0.4872,-0.53486 0.8087,-0.54194 z m -1.6825,1.18617 c 0.6256,0.11678 0.9745,0.86671 1.659,0.82397 0.1633,-0.0173 0.3977,0.0471 0.3373,0.25852 0.024,0.35813 0.4255,0.71643 0.1604,1.0659 -0.2329,0.21921 -0.5741,0.27796 -0.817,0.48801 -0.3981,0.12229 -0.7433,-0.22779 -0.983,-0.50046 -0.1544,-0.0317 -0.432,-0.0199 -0.3774,-0.26267 -0.051,-0.62049 -0.064,-1.2608 0.01,-1.87188 l 0.012,-10e-4 v 0 z m 9.2751,0.84332 c 0.4063,0.0208 0.8014,0.49528 0.6387,0.88894 -0.2815,0.18229 -0.7063,0.14707 -0.9719,-0.0581 -0.361,-0.26545 -0.057,-0.82748 0.3332,-0.83087 z m -19.2856,0.39124 c 0.2978,-0.003 0.7163,0.30423 0.5378,0.63042 -0.3362,0.305 -0.858,0.28241 -1.2788,0.27096 0.018,-0.41099 0.3192,-0.83773 0.741,-0.90138 z m 13.1529,1.44608 c 0.2102,-0.0188 0.4936,0.2092 0.2931,0.42028 -0.2977,0.5429 -0.122,1.26161 0.3332,1.65345 0.1332,0.16035 0.122,0.43456 -0.1148,0.49078 -0.5585,0.21878 -1.2509,-0.14668 -1.4585,-0.69263 -0.081,-0.36682 0.3191,-0.77003 0.06,-1.10184 -0.2561,-0.1117 -0.3918,0.23538 -0.4908,0.40369 -0.1983,0.36951 -0.2046,0.81037 -0.066,1.19723 -0.089,0.40055 -0.6333,0.52016 -0.9677,0.35945 -0.7036,-0.32469 -0.8781,-1.45821 -0.1977,-1.89815 0.3182,-0.21213 0.7036,0.0317 1.0493,-0.0857 0.5576,-0.0677 0.8845,-0.64266 1.417,-0.74101 0.048,-0.007 0.096,-0.002 0.1438,-0.006 z m 5.9226,0.16313 c 0.3737,0.1057 0.8138,0.11626 1.0686,0.45208 0.362,0.29726 0.6717,0.80446 0.4286,1.26497 -0.2073,0.46431 -0.8957,0.76766 -1.312,0.39262 -0.2623,-0.29935 0.022,-0.72238 -0.093,-1.06866 0.01,-0.34735 -0.2019,-0.69791 -0.093,-1.04101 z m -4.4088,0.21844 c 0.4305,-0.0228 1.0056,0.3127 0.8931,0.80875 -0.035,0.24738 -0.2418,0.56548 -0.5281,0.4258 -0.4033,-0.0574 -0.9104,-0.35363 -0.8433,-0.82396 0.048,-0.22184 0.2502,-0.41314 0.4783,-0.41059 z m 0.2447,2.09999 c 0.4165,-0.0292 0.7952,0.53835 0.4632,0.85576 -0.3096,0.37697 -0.9851,0.62524 -1.3756,0.24331 -0.1971,-0.23423 0.109,-0.51122 0.2267,-0.70783 0.1167,-0.26735 0.4049,-0.38964 0.6857,-0.39124 z m 3.6208,0.37742 c 0.4231,0.0214 0.7704,0.34245 1.2,0.33318 0.1618,0.0656 0.2496,0.28168 0.1188,0.42304 -0.099,0.22015 -0.1549,0.62165 -0.4894,0.55714 -0.2908,0.005 -0.5875,0.29879 -0.8709,0.0968 -0.3864,-0.23538 -0.6885,-0.79647 -0.3816,-1.20414 0.1058,-0.12472 0.2594,-0.20287 0.4231,-0.20599 z m -6.4203,0.31797 c 0.5652,0.10061 1.1257,0.4397 1.3811,0.94838 -0.1061,0.27904 -0.4049,0.4276 -0.6415,0.58065 -0.3216,0.0817 -0.6561,-0.0773 -0.9345,-0.21705 -0.3537,-0.30551 -0.4306,-1.00901 0.01,-1.2788 0.06,-0.0253 0.1244,-0.05 0.1894,-0.0332 z m -2.1097,0.047 c 0.2217,0.15877 0.5121,0.24262 0.7535,0.30968 0.1378,0.41123 0.087,0.90669 0.3981,1.25253 0.4452,0.64167 1.2589,0.96142 2.024,0.8917 0.4635,0.32476 0.9039,0.86221 1.5331,0.77865 0.1527,0.0134 0.3586,-0.099 0.4826,-0.0114 0.059,0.24753 0.1577,0.46916 0.3029,0.67767 0.2218,0.40597 0.4441,0.81269 0.7229,1.18039 -0.8882,0.21382 -1.8014,-0.0539 -2.7011,-0.053 -2.2965,-0.13549 -4.6082,-0.0104 -6.8779,0.32878 -0.6137,0.06 -1.2306,0.15189 -1.8376,0.21498 -0.219,-0.0457 -0.5426,0.0194 -0.6719,-0.19078 0.1198,-0.3296 0.5349,-0.36095 0.7936,-0.51428 0.1457,-0.18793 0.1425,-0.44329 0.2709,-0.63042 0.044,-0.55479 0.5764,-0.87604 1.0189,-1.10598 0.3756,-0.0903 0.7828,-0.0183 1.1378,-0.19908 0.7816,-0.29042 1.4179,-0.97957 1.5705,-1.80414 0.1524,-0.35722 0.6423,-0.31449 0.8184,-0.65668 0.098,-0.15179 0.1712,-0.32418 0.2157,-0.49631 l 0.038,0.0229 0.01,0.005 z m 7.0853,0.0857 c 0.2491,0.0518 0.1783,0.41575 -0.026,0.49078 -0.2828,0.25739 -0.6863,0.45777 -1.0673,0.35392 -0.075,-0.28803 0.086,-0.57134 0.2281,-0.81567 0.2875,0.0406 0.5829,0.029 0.8655,-0.029 z m 0.3774,1.03548 c 0.3166,0.24108 0.4407,0.65957 0.4023,1.04792 -0.3292,0.22913 -0.8133,0.26847 -1.1558,0.0747 -0.1431,-0.12866 -0.3824,-0.29245 -0.3318,-0.50322 0.3069,-0.27232 0.7002,-0.50157 1.0853,-0.61935 z m -2.3143,0.14239 c 0.3231,0.0301 0.3812,0.48322 0.1604,0.67604 -0.4058,0.50701 -1.3836,0.46846 -1.6286,-0.17558 -0.1098,-0.28334 0.1993,-0.53419 0.4742,-0.44792 0.3321,0.006 0.6639,-0.0204 0.994,-0.0525 z"
       style="fill:#070000;fill-opacity:1" />
  </g>
</svg>
