<?xml version="1.0" encoding="UTF-8" standalone="no"?>
<svg
   xmlns="http://www.w3.org/2000/svg"
   width="40"
   height="40"
   id="svg5257"
   version="1.1">
  <g
     id="layer1"
     transform="translate(-183.69501,-326.88146)">
    <path
       id="path10518-28-0-17-6"
       d="m 205.14749,332.38749 c -0.8062,0.0401 -1.5884,0.28105 -2.3931,0.35656 -0.8903,0.12197 -1.7917,0.2272 -2.6584,0.4628 -0.2014,0.082 -0.4027,0.24476 -0.4007,0.47894 -0.2345,0.65146 -0.8444,1.06156 -1.1915,1.6419 -0.4182,0.83981 -0.5191,1.79142 -0.8183,2.67588 -0.056,0.23467 -0.176,0.45058 -0.3859,0.58042 -0.4965,0.40154 -1.0615,0.7104 -1.6387,0.97478 -0.2491,0.11701 -0.4836,0.35806 -0.4219,0.6555 0.139,0.70128 0.5312,1.31637 0.83,1.95695 0.3869,0.71847 0.6981,1.48078 1.1376,2.16841 0.3661,0.60875 0.4491,1.40612 1.0255,1.88083 0.2775,0.1773 0.5933,0.28928 0.849,0.50325 0.2716,0.22341 0.5952,0.42472 0.7559,0.74747 0.045,0.31774 -0.2306,0.56555 -0.3891,0.80985 -0.2317,0.26622 -0.4229,0.56472 -0.609,0.86271 -0.3653,0.28834 -0.8688,0.30449 -1.3152,0.35312 -0.637,0.0217 -1.3193,0.0352 -1.9009,-0.2585 -0.1832,-0.10126 -0.3746,-0.28283 -0.5224,-0.0357 -0.2275,0.19972 -0.4848,0.4085 -0.7981,0.42847 -0.1444,0.0872 0.022,0.28528 0.09,0.37638 0.271,0.43373 0.075,0.96671 -0.075,1.39768 -0.208,0.8672 -0.2476,1.77382 -0.4927,2.63464 -0.1255,0.43672 0.066,0.89947 -0.097,1.33077 -0.1294,0.44264 -0.4407,0.79438 -0.7094,1.1601 0.021,1.03558 -0.056,2.08623 0.091,3.11147 0.021,0.0688 0.023,0.24329 0.1273,0.14513 0.5834,-0.33866 1.1457,-0.73925 1.6023,-1.24361 0.082,-0.11857 0.02,-0.29671 0.1343,-0.40809 0.2329,-0.27291 0.6355,-0.12376 0.9034,0.0123 0.7203,0.35422 1.1749,1.04765 1.8433,1.47208 0.6241,0.35126 1.1886,0.79246 1.6859,1.30918 0.1562,0.13906 0.4109,0.0447 0.6091,0.0842 1.0154,0.0309 2.0384,0.0649 3.0387,0.23028 0.3346,0.0364 0.7067,-0.009 0.9421,-0.27036 0.084,-0.0798 0.2106,-0.0711 0.2791,0.0201 0.2426,0.12868 0.5149,0.2072 0.7623,0.3214 1.0752,0.0809 2.162,0.0738 3.2403,0.0256 0.097,0.001 0.1978,-0.003 0.2,-0.125 0.1034,-0.56345 0.1271,-1.15411 0.3499,-1.69158 0.1082,-0.20958 0.1436,-0.43878 0.1988,-0.6629 0.2002,-0.49563 0.5005,-0.95182 0.8944,-1.31838 -0.2003,-0.40861 -0.5587,-0.69124 -0.831,-1.03927 -0.1097,-0.10976 -0.09,-0.27128 -0.1459,-0.39858 -0.1983,-0.21792 -0.166,-0.55145 -0.2581,-0.8198 -0.1786,-0.8944 -0.1959,-1.81642 -0.2618,-2.72594 -0.021,-0.37096 -0.059,-0.86104 0.3127,-1.07653 0.5622,-0.31352 1.248,-0.204 1.8364,-0.41549 0.6161,-0.2308 1.0192,-0.77159 1.3717,-1.29799 0.3538,-0.51409 0.8207,-0.98009 1.0346,-1.57454 0.1694,-0.6117 -0.2218,-1.18437 -0.2706,-1.78252 0,-0.71958 0.3733,-1.36172 0.6692,-1.99396 0.3077,-0.62835 0.6836,-1.22652 0.9896,-1.85335 0.05,-0.20886 -0.1574,-0.38137 -0.202,-0.57408 -0.2406,-0.66104 -0.5978,-1.26934 -0.9205,-1.8892 -0.2089,-0.42387 -0.3307,-0.88949 -0.4295,-1.35019 0.02,-0.34818 -0.3314,-0.53535 -0.6027,-0.64915 -0.79,-0.31133 -1.6509,-0.51716 -2.3344,-1.03715 -0.2396,-0.17416 -0.308,-0.47203 -0.3349,-0.7522 -0.049,-0.3335 -0.1512,-0.72115 -0.4908,-0.86962 -0.6407,-0.34797 -1.442,-0.4555 -1.9485,-1.00861 -0.4879,-0.56092 -0.6293,-1.38135 -1.2158,-1.85863 -0.2118,-0.15651 -0.4816,-0.19529 -0.7401,-0.18819 z m -2.8334,1.79943 c 0.2908,0.006 0.5358,0.22684 0.8373,0.19771 0.5221,0.0104 1.132,-0.10954 1.5595,0.26748 0.1876,0.16417 0.3826,0.36927 0.369,0.63857 0.052,0.88309 -0.056,1.76564 -0.1523,2.64205 -0.6736,0.0942 -1.42,-0.0446 -1.9012,-0.55189 -0.3524,-0.3348 -0.4773,-0.9083 -0.2143,-1.33211 0.01,-0.046 0.1389,-0.23152 0.025,-0.17656 -0.7247,0.28485 -1.4352,0.60707 -2.1007,1.01072 -0.3731,0.22313 -0.686,0.59764 -1.1281,0.67346 -0.2382,0.0422 -0.3704,-0.22529 -0.3129,-0.42712 0.087,-0.52673 0.4876,-0.95019 0.5487,-1.4812 0.1584,-0.40194 0.4334,-0.78551 0.8183,-0.99592 0.5102,-0.11266 1.019,-0.24394 1.5055,-0.4377 0.048,-0.0119 0.096,-0.0264 0.1459,-0.0275 z m 3.8959,1.43679 c 0.3891,0.0174 0.6714,0.34976 0.9854,0.54554 0.3191,0.25946 0.674,0.48185 0.979,0.75382 0.2276,0.46759 0.2792,1.00581 0.3055,1.52137 0,0.37045 0.01,0.75649 0.1967,1.08473 0.1275,0.33004 -0.1897,0.59017 -0.3975,0.79428 -0.3626,0.30316 -0.5834,0.72966 -0.7894,1.14932 -0.2114,0.29682 -0.4215,0.65507 -0.7838,0.78303 -0.3137,0.0658 -0.5811,-0.1956 -0.7686,-0.41127 -0.094,-0.1513 -0.2274,-0.38886 -0.09,-0.55082 0.1277,-0.0355 0.2607,-0.0731 0.3574,-0.17867 0.5318,-0.50538 0.9476,-1.13178 1.2317,-1.80683 0.056,-0.15026 0.1381,-0.37577 -0.065,-0.46096 -0.3168,-0.2146 -0.6671,-0.42875 -1.0541,-0.47365 -0.2411,0.023 -0.3899,-0.21322 -0.4007,-0.42818 -0.09,-0.75911 -0.053,-1.52869 -0.083,-2.2921 0.1254,-0.01 0.2508,-0.0218 0.3763,-0.0296 z m -4.7533,1.58164 c 0.4807,-0.01 0.8839,0.28798 1.312,0.45779 0.3822,0.0156 0.6506,0.33942 0.9436,0.55142 0.081,0.12354 0.4164,0.23073 0.3262,0.36415 -0.044,0.119 -0.4222,0.30958 -0.2149,0.37173 0.18,0.0562 0.3404,0.16745 0.4855,0.27319 0.4522,0.0663 0.9335,0.0823 1.3818,-0.005 0.1912,-0.25267 0.563,-0.12965 0.7718,0.0328 0.2445,0.16122 0.3294,0.48359 0.2146,0.75065 -0.2042,0.55436 -0.8504,0.78179 -1.3987,0.81196 -0.6386,0.0429 -1.2653,-0.1789 -1.7688,-0.56039 -0.5154,-0.29202 -1.059,-0.58741 -1.6376,-0.72839 -0.059,0.002 -0.2113,0.0318 -0.1026,0.0951 0.4195,0.30699 0.7634,0.71664 1.0308,1.15663 0.093,0.20168 -0.1734,0.31129 -0.3309,0.33514 -0.6044,0.14523 -1.2519,0.0227 -1.8512,0.1533 -0.1299,0.0303 0.055,0.14356 0.093,0.17973 0.2986,0.19564 0.5812,0.41127 0.8384,0.65232 0.2763,0.10377 0.5929,-0.0123 0.8825,-0.008 0.9418,-0.0616 1.93,-0.0692 2.8052,0.31926 0.2401,0.0759 0.5084,0.0503 0.7305,0.19136 0.5164,0.27402 0.9985,0.69279 1.1789,1.26447 0.073,0.20978 0.2717,0.32187 0.3933,0.49373 0.1921,0.4322 0,0.92181 -0.1467,1.33823 -0.3201,0.74266 -0.7585,1.48805 -1.4413,1.94557 -0.2683,0.15398 -0.5949,0.19741 -0.8236,0.42501 -0.1648,0.17651 -0.3819,0.29683 -0.591,0.41126 -0.093,0.28947 0.1167,0.5816 0.097,0.87857 -0.012,0.48098 -0.269,0.89111 -0.3943,1.33953 -0.097,0.50075 -0.042,1.04743 -0.3055,1.50446 -0.122,0.26263 -0.3703,0.45728 -0.41,0.76099 -0.092,0.42583 -0.1784,0.89466 -0.038,1.31649 0.1678,0.14427 0.2985,0.41463 0.1258,0.60792 -0.2162,0.22847 -0.5748,0.11638 -0.8416,0.0634 -0.6048,-0.14734 -1.1253,-0.52949 -1.7425,-0.6378 -0.3716,-0.0666 -0.7356,-0.16136 -1.0877,-0.29152 -0.2397,-0.0207 -0.5006,-0.0439 -0.6777,-0.22625 -0.4346,-0.41032 -0.6438,-1.07958 -0.4811,-1.66198 0.1917,-0.43792 0.4578,-0.84715 0.6809,-1.26975 0.2528,-0.4292 0.5949,-0.7921 0.8273,-1.24167 0.2956,-0.53747 0.6489,-1.03941 1.0102,-1.52937 0.1681,-0.22724 -0.04,-0.47782 -0.1935,-0.63857 -0.7234,-0.77539 -1.6773,-1.43374 -1.9954,-2.49044 -0.3766,-1.21223 -0.7597,-2.42535 -1.0959,-3.64686 -0.1696,-0.34884 -0.1531,-0.77267 0.058,-1.09953 0.4721,-0.76771 1.1735,-1.35512 1.81,-1.98339 0.437,-0.37583 0.8347,-0.86891 1.4167,-1.00967 0.052,-0.0102 0.1038,-0.0149 0.1565,-0.0169 z m -0.8892,4.0873 v 0.001 z m 9.7679,-2.68011 c 0.4904,-0.0155 0.9247,0.367 1.0234,0.84051 0.3116,1.02501 -0.064,2.22686 -0.9241,2.86645 -0.3704,0.29774 -0.6533,0.72538 -1.1248,0.8709 -0.4321,0.13135 -0.955,0.28909 -1.3713,0.0307 -0.2853,-0.21204 -0.1767,-0.62889 0,-0.87872 0.291,-0.44214 0.7237,-0.76314 1.0024,-1.21886 0.4162,-0.63478 0.8259,-1.33438 0.8521,-2.10603 0.045,-0.25558 0.2996,-0.40615 0.5445,-0.40492 z m 2.3852,2.92856 c 0.2915,-0.0251 0.4721,0.27385 0.4556,0.53603 0,0.37226 -0.125,0.7348 -0.2051,1.09107 -0.2199,0.45409 -0.6127,0.80308 -0.8891,1.22218 -0.2832,0.23144 -0.6265,0.40743 -0.9812,0.4969 -0.32,0.0269 -0.5867,-0.20643 -0.8572,-0.34303 -0.184,-0.0968 -0.3623,-0.31634 -0.2476,-0.53131 0.253,-0.44911 0.6729,-0.77056 1.0042,-1.16264 0.4732,-0.47524 0.8973,-1.07757 1.5618,-1.28594 0.052,-0.0144 0.1049,-0.0209 0.1586,-0.0233 z m -3.323,3.77331 c 0.5538,4.5e-4 0.9621,0.47607 1.18,0.94088 0.2244,0.41272 0.5742,0.79575 0.5624,1.29413 0.025,0.55498 -0.2974,1.02897 -0.6192,1.44914 -0.102,0.1078 -0.1205,0.24757 -0.1864,0.36932 -0.3368,0.37533 -0.8415,0.53303 -1.3089,0.68192 -0.3396,0.0872 -0.7232,0.17656 -1.0499,0.004 -0.3898,-0.0958 -0.8285,0.29575 -0.7136,0.69989 0.061,0.3462 -0.225,0.59839 -0.3045,0.91346 -0.1606,0.42092 -0.2359,0.86608 -0.2474,1.31494 -0.044,0.4398 -0.4278,0.77054 -0.4144,1.22562 0,0.53971 -0.2391,1.09661 -0.6703,1.42622 -0.3855,0.23298 -0.9233,0.0228 -1.1281,-0.35735 -0.1746,-0.0831 -0.3941,0.0481 -0.5656,-0.0772 -0.3092,-0.19292 -0.229,-0.63129 -0.072,-0.8976 0.3013,-0.43055 0.4642,-0.92674 0.6893,-1.39767 0.1244,-0.27029 0.3229,-0.50168 0.5836,-0.64809 0.1359,-0.0875 0.114,-0.26474 0.24,-0.36475 0.2256,-0.23343 0.4805,-0.48593 0.4889,-0.8351 0.013,-0.19777 0.1157,-0.40653 0.048,-0.59747 -0.1653,-0.10962 -0.3584,-0.26226 -0.3161,-0.48844 0.095,-0.47352 0.4823,-0.8151 0.7912,-1.16304 0.4279,-0.41847 0.86,-0.83891 1.1975,-1.33523 0.4937,-0.58838 1.0539,-1.14462 1.3564,-1.86603 0.087,-0.17206 0.2658,-0.28615 0.4588,-0.2918 z m -13.0273,6.2557 c 0.2865,-0.0264 0.3947,0.29091 0.4475,0.51584 0.091,0.42756 0.2212,0.84134 0.4311,1.22227 0.106,0.28329 0.082,0.59347 0.1936,0.87609 0.1736,0.58135 0.3448,1.16285 0.649,1.68802 0.2124,0.38153 0.3975,0.7893 0.6639,1.12884 0.3131,0.091 0.6601,0.0426 0.9854,0.0973 0.3036,0.0267 0.6502,0.0463 0.9325,-0.006 -0.1456,-0.18707 -0.3302,-0.46806 -0.1576,-0.70412 0.2769,-0.334 0.7876,-0.28202 1.1588,-0.15224 0.2037,0.0955 0.4058,0.19071 0.6354,0.18079 0.5941,0.0883 1.1393,0.40876 1.7434,0.44298 0.4249,-0.0625 0.8415,0.12255 1.2507,0.20088 0.4391,0.21033 0.9427,0.11866 1.4125,0.10995 0.027,-0.30491 0.02,-0.74255 0.3552,-0.88385 0.2998,-0.0878 0.5138,0.20054 0.7126,0.36897 0.1156,0.0982 0.2892,0.0931 0.3785,0.23471 0.1896,0.21726 0.4318,0.54056 0.2474,0.83205 -0.4389,0.73439 -1.0943,1.31219 -1.6399,1.9678 -0.1593,0.22345 -0.4715,0.47965 -0.7506,0.29576 -0.086,-0.0853 -0.1616,-0.19923 -0.3034,-0.15859 -0.4939,0.0153 -1.0007,0.21183 -1.4907,0.0856 -0.374,-0.17571 -0.7825,0.0254 -1.1756,-0.007 -1.0364,0.0327 -2.0771,-0.0633 -3.1105,-0.0143 -0.1382,-0.0191 -0.1573,0.17716 -0.3034,0.15013 -0.3724,-0.0569 -0.6388,-0.37475 -0.8669,-0.6502 -0.2543,-0.29777 -0.2931,-0.70841 -0.5458,-1.01106 -0.394,-0.57712 -0.9139,-1.04536 -1.4578,-1.47777 -0.4266,-0.40194 -0.8174,-0.85919 -1.1639,-1.33522 -0.4797,-0.66441 -0.3866,-1.52989 -0.4026,-2.30796 0.025,-0.44741 -0.045,-0.94851 0.2186,-1.33636 0.2232,-0.27041 0.6269,-0.31055 0.9526,-0.35312 z"
       style="fill:#010101" />
  </g>
</svg>
